<?xml version="1.0" encoding="UTF-8"?>
<svg width="3149px" height="2065px" viewBox="0 0 3149 2065" version="1.1" xmlns="http://www.w3.org/2000/svg" xmlns:xlink="http://www.w3.org/1999/xlink">
    <!-- Generator: Sketch 50.2 (55047) - http://www.bohemiancoding.com/sketch -->
    <title>community</title>
    <desc>Created with Sketch.</desc>
    <defs>
        <path d="M65.6222658,80.4494545 L81.8336962,80.4494545 L77.8058734,6.027 L56.1535443,6.027 L48.3204304,30.7611818 C45.9282152,39.0431818 43.4247342,48.872 41.3551899,57.482 L41.0288101,57.482 C39.3969114,48.7601818 37.1122532,39.3749091 34.8275949,30.873 L27.6472405,6.027 L5.56097468,6.027 L0.880392405,80.4494545 L16.2239494,80.4494545 L17.5294684,52.1818182 C18.070962,42.9083636 18.3973418,31.4246364 18.8349873,21.3759091 L19.0501013,21.3759091 C20.7932658,31.0929091 23.293038,41.6932727 25.688962,50.5269091 L33.5220759,79.2343636 L46.4697089,79.2343636 L55.3932278,50.1951818 C58.2230886,41.4733636 61.2680633,30.873 63.5527215,21.3759091 L63.8791013,21.3759091 C63.8791013,32.1961818 64.205481,43.0201818 64.5318608,51.9619091 L65.6222658,80.4494545 Z M141.409127,58.8089091 L107.131835,58.8089091 C107.677038,65.764 114.423456,69.0775455 122.149013,69.0775455 C127.808734,69.0775455 132.378051,68.306 136.836101,66.8672727 L139.013203,78.2429091 C133.572304,80.4494545 126.937152,81.6645455 119.756797,81.6645455 C101.694646,81.6645455 91.3580506,70.9560909 91.3580506,54.0603636 C91.3580506,40.3700909 99.7363671,25.2410909 118.232456,25.2410909 C135.423025,25.2410909 141.95062,38.8232727 141.95062,52.1818182 C141.95062,55.0555455 141.624241,57.5938182 141.409127,58.8089091 Z M107.024278,47.3251818 L126.610772,47.3251818 C126.610772,43.2400909 124.867608,36.3930909 117.253316,36.3930909 C110.288076,36.3930909 107.458215,42.7965455 107.024278,47.3251818 Z M186.946519,2.05372727 L203.484329,2.05372727 L203.484329,64.329 C203.484329,70.4007273 203.703152,76.8079091 203.921975,80.4494545 L189.231177,80.4494545 L188.470861,72.4991818 L188.252038,72.4991818 C184.880684,78.5746364 178.460646,81.6645455 171.602962,81.6645455 C158.981709,81.6645455 148.863937,70.7324545 148.863937,53.9485455 C148.75638,35.7296364 159.960848,25.2410909 172.693367,25.2410909 C179.220962,25.2410909 184.335481,27.5594545 186.727696,31.3128182 L186.946519,31.3128182 L186.946519,2.05372727 Z M186.946519,56.3787273 L186.946519,49.3118182 C186.946519,48.4284545 186.838962,47.2133636 186.727696,46.33 C185.748557,41.8050909 182.15838,38.048 177.043861,38.048 C169.537127,38.048 165.62057,44.895 165.62057,53.3969091 C165.62057,62.5622727 170.082329,68.306 176.936304,68.306 C181.724443,68.306 185.533443,64.9924545 186.512582,60.2439091 C186.838962,59.0288182 186.946519,57.8137273 186.946519,56.3787273 Z M216.817684,80.4494545 L233.355494,80.4494545 L233.355494,26.4561818 L216.817684,26.4561818 L216.817684,80.4494545 Z M225.084734,2.93709091 C219.755101,2.93709091 216.272481,6.58236364 216.380038,11.439 C216.272481,16.0757273 219.755101,19.8290909 224.977177,19.8290909 C230.418076,19.8290909 233.900696,16.0757273 233.900696,11.439 C233.78943,6.58236364 230.418076,2.93709091 225.084734,2.93709091 Z M293.691241,58.8089091 L259.417658,58.8089091 C259.962861,65.764 266.709278,69.0775455 274.434835,69.0775455 C280.090848,69.0775455 284.660165,68.306 289.121924,66.8672727 L291.299025,78.2429091 C285.858127,80.4494545 279.219266,81.6645455 272.038911,81.6645455 C253.976759,81.6645455 243.640165,70.9560909 243.640165,54.0603636 C243.640165,40.3700909 252.018481,25.2410909 270.51457,25.2410909 C287.708848,25.2410909 294.236443,38.8232727 294.236443,52.1818182 C294.236443,55.0555455 293.910063,57.5938182 293.691241,58.8089091 Z M259.310101,47.3251818 L278.892886,47.3251818 C278.892886,43.2400909 277.15343,36.3930909 269.53543,36.3930909 C262.573899,36.3930909 259.744038,42.7965455 259.310101,47.3251818 Z M304.194734,80.4494545 L320.732544,80.4494545 L320.732544,49.3118182 C320.732544,47.765 320.951367,46.2219091 321.385304,45.1149091 C322.475709,42.025 325.194304,38.8232727 329.76362,38.8232727 C335.749722,38.8232727 338.141937,43.5718182 338.141937,50.5269091 L338.141937,80.4494545 L354.679747,80.4494545 L354.679747,48.4284545 C354.679747,32.5279091 346.520253,25.2410909 335.638456,25.2410909 C326.826203,25.2410909 321.385304,30.4294545 319.208203,33.8548182 L318.881823,33.8548182 L318.121506,26.4561818 L303.760797,26.4561818 C303.975911,31.2047273 304.194734,36.9447273 304.194734,43.6799091 L304.194734,80.4494545 Z M368.013101,80.4494545 L384.550911,80.4494545 L384.550911,26.4561818 L368.013101,26.4561818 L368.013101,80.4494545 Z M376.283861,2.93709091 C370.950519,2.93709091 367.467899,6.58236364 367.579165,11.439 C367.467899,16.0757273 370.950519,19.8290909 376.172595,19.8290909 C381.613494,19.8290909 385.096114,16.0757273 385.096114,11.439 C384.988557,6.58236364 381.613494,2.93709091 376.283861,2.93709091 Z M397.884266,80.4494545 L414.422076,80.4494545 L414.422076,49.3118182 C414.422076,47.765 414.640899,46.2219091 415.074835,45.1149091 C416.161532,42.025 418.883835,38.8232727 423.453152,38.8232727 C429.435544,38.8232727 431.831468,43.5718182 431.831468,50.5269091 L431.831468,80.4494545 L448.369278,80.4494545 L448.369278,48.4284545 C448.369278,32.5279091 440.209785,25.2410909 429.327987,25.2410909 C420.515734,25.2410909 415.074835,30.4294545 412.897734,33.8548182 L412.571354,33.8548182 L411.811038,26.4561818 L397.44662,26.4561818 C397.665443,31.2047273 397.884266,36.9447273 397.884266,43.6799091 L397.884266,80.4494545 Z M480.198722,80.4494545 L480.198722,38.8232727 L490.754139,38.8232727 L490.754139,26.4561818 L480.091165,26.4561818 L480.091165,23.6942727 C480.091165,18.3940909 482.375823,14.0890909 487.816722,14.0890909 C489.990114,14.0890909 491.733278,14.4208182 493.146354,14.8606364 L493.799114,1.94190909 C491.514456,1.28218182 488.684595,0.838636364 484.986861,0.838636364 C480.198722,0.838636364 474.431443,2.27363636 470.296063,6.25063636 C465.507924,10.6674545 463.549646,17.8424545 463.549646,24.3577273 L463.549646,26.4561818 L456.588114,26.4561818 L456.588114,38.8232727 L463.549646,38.8232727 L463.549646,80.4494545 L480.198722,80.4494545 Z M523.125076,25.2410909 C539.447772,25.2410909 550.325861,36.613 550.325861,52.8452727 C550.325861,72.611 536.510354,81.6645455 522.253494,81.6645455 C506.694823,81.6645455 494.726329,71.2840909 494.726329,53.8404545 C494.726329,36.3930909 506.042063,25.2410909 523.125076,25.2410909 Z M522.691139,37.1646364 C514.746759,37.1646364 511.809342,45.4466364 511.809342,53.3969091 C511.809342,62.6740909 515.618342,69.6291818 522.691139,69.6291818 C529.111177,69.6291818 533.246557,63.1139091 533.246557,53.3969091 C533.246557,45.3385455 530.197873,37.1646364 522.691139,37.1646364 Z M560.614241,80.4494545 L577.152051,80.4494545 L577.152051,53.0651818 C577.152051,51.742 577.259608,50.4150909 577.47843,49.3118182 C578.565127,44.1234545 582.700506,40.8099091 588.794165,40.8099091 C590.644886,40.8099091 592.057962,41.0298182 593.255924,41.3615455 L593.255924,25.461 C592.057962,25.2410909 591.297646,25.2410909 589.773304,25.2410909 C584.658785,25.2410909 578.13119,28.5546364 575.412595,36.3930909 L574.974949,36.3930909 L574.429747,26.4561818 L560.176595,26.4561818 C560.395418,31.0929091 560.614241,36.2812727 560.614241,44.2315455 L560.614241,80.4494545 Z M602.016253,80.4494545 L618.120127,80.4494545 L618.120127,48.9800909 C618.120127,47.6569091 618.227684,46.1100909 618.772886,44.7869091 C619.752025,42.025 622.255506,38.7114545 626.498443,38.7114545 C631.720519,38.7114545 634.116443,43.3481818 634.116443,50.1951818 L634.116443,80.4494545 L650.220316,80.4494545 L650.220316,48.872 C650.220316,47.5450909 650.43543,45.7783636 650.869367,44.5632727 C651.959772,41.3615455 654.678367,38.7114545 658.487367,38.7114545 C663.820709,38.7114545 666.320481,43.2400909 666.320481,51.0785455 L666.320481,80.4494545 L682.424354,80.4494545 L682.424354,48.6483636 C682.424354,32.5279091 674.698797,25.2410909 664.473468,25.2410909 C660.553203,25.2410909 657.289405,26.1244545 654.351987,27.8911818 C651.848506,29.438 649.456291,31.5364545 647.498013,34.4064545 L647.27919,34.4064545 C644.994532,28.7745455 639.553633,25.2410909 632.699658,25.2410909 C623.561025,25.2410909 618.880443,30.3213636 616.595785,33.743 L616.269405,33.743 L615.509089,26.4561818 L601.582316,26.4561818 C601.79743,31.2047273 602.016253,36.9447273 602.016253,43.6799091 L602.016253,80.4494545 Z M740.041506,48.5402727 L740.041506,67.3108182 C740.041506,72.4991818 740.260329,77.4676364 740.801823,80.4494545 L725.895911,80.4494545 L724.916772,75.0411818 L724.590392,75.0411818 C721.107772,79.3461818 715.666873,81.6645455 709.358101,81.6645455 C698.58757,81.6645455 692.167532,73.7142727 692.167532,65.1005455 C692.167532,51.0785455 704.569962,44.3433636 723.39243,44.4551818 L723.39243,43.6799091 C723.39243,40.8099091 721.871797,36.7248182 713.708595,36.7248182 C708.271405,36.7248182 702.504127,38.6033636 699.021506,40.8099091 L695.976532,29.9896364 C699.674266,27.8911818 706.962177,25.2410909 716.646013,25.2410909 C734.381785,25.2410909 740.041506,35.8414545 740.041506,48.5402727 Z M723.937633,60.7955455 L723.937633,54.9437273 C715.232937,54.8319091 708.486519,56.9303636 708.486519,63.4456364 C708.486519,67.7506364 711.31638,69.8490909 715.014114,69.8490909 C719.149494,69.8490909 722.524557,67.0909091 723.611253,63.6655455 C723.830076,62.7821818 723.937633,61.7907273 723.937633,60.7955455 Z M754.569114,16.2956364 L754.569114,26.4561818 L747.496316,26.4561818 L747.496316,38.8232727 L754.569114,38.8232727 L754.569114,60.9073636 C754.569114,68.5259091 756.093456,73.7142727 759.13843,76.916 C761.749468,79.6779091 766.211228,81.6645455 771.54457,81.6645455 C776.221443,81.6645455 780.138,81.0010909 782.315101,80.1177273 L782.207544,67.4226364 C780.575646,67.7506364 779.596506,67.8624545 777.311848,67.8624545 C772.304886,67.8624545 770.780544,64.8806364 770.780544,58.3653636 L770.780544,38.8232727 L782.641481,38.8232727 L782.641481,26.4561818 L770.780544,26.4561818 L770.780544,11.7707273 L754.569114,16.2956364 Z M792.273392,80.4494545 L808.814911,80.4494545 L808.814911,26.4561818 L792.273392,26.4561818 L792.273392,80.4494545 Z M800.544152,2.93709091 C795.21081,2.93709091 791.731899,6.58236364 791.839456,11.439 C791.731899,16.0757273 795.21081,19.8290909 800.436595,19.8290909 C805.873785,19.8290909 809.356405,16.0757273 809.356405,11.439 C809.248848,6.58236364 805.873785,2.93709091 800.544152,2.93709091 Z M838.682367,2.05372727 L822.144557,2.05372727 L822.144557,80.4494545 L838.682367,80.4494545 L838.682367,63.5574545 L842.929013,58.2572727 L855.76538,80.4494545 L876.11219,80.4494545 L854.352304,48.3203636 L873.393595,26.4561818 L853.480722,26.4561818 L842.71019,42.6884545 C841.404671,44.7869091 840.099152,46.9934545 838.90119,49.2037273 L838.682367,49.2037273 L838.682367,2.05372727 Z" id="path-1"></path>
        <path d="M33.6675573,37.238913 L33.6675573,53.2152174 C33.6675573,56.9219565 33.8419237,60.54 34.361313,63.4521739 L27.4200458,63.4521739 L26.8116183,58.0676087 L26.5519237,58.0676087 C24.2072519,61.4232609 19.6922748,64.4241304 13.704458,64.4241304 C5.19760305,64.4241304 0.856992366,58.3336957 0.856992366,52.1545652 C0.856992366,41.828913 9.88694656,36.1782609 26.1178626,36.2669565 L26.1178626,35.3836957 C26.1178626,31.8543478 25.1607023,25.5015217 16.5685191,25.5015217 C12.6619695,25.5015217 8.58476336,26.7358696 5.63166412,28.676087 L3.89541985,23.5576087 C7.3679084,21.2626087 12.4022748,19.7621739 17.6963359,19.7621739 C30.5438015,19.7621739 33.6675573,28.676087 33.6675573,37.238913 Z M26.2885191,49.065 L26.2885191,41.6515217 C17.9560305,41.4741304 8.49572519,42.9745652 8.49572519,51.2713043 C8.49572519,56.3047826 11.7938473,58.6847826 15.7003969,58.6847826 C21.1688244,58.6847826 24.641313,55.1554348 25.854458,51.5373913 C26.1178626,50.7428261 26.2885191,49.8595652 26.2885191,49.065 Z M45.9919237,63.4521739 L53.4562901,63.4521739 L53.4562901,37.6786957 C53.4562901,36.3556522 53.6306565,35.0326087 54.0647176,33.8832609 C55.2815725,30.0028261 58.7540611,26.1186957 63.5250229,26.1186957 C69.3421832,26.1186957 72.2915725,31.0597826 72.2915725,37.856087 L72.2915725,63.4521739 L79.7559389,63.4521739 L79.7559389,37.0615217 C79.7559389,35.6497826 80.0193435,34.2380435 80.3643664,33.1773913 C81.6665496,29.3819565 85.05,26.1186957 89.3906107,26.1186957 C95.5527939,26.1186957 98.5058931,31.0597826 98.5058931,39.2678261 L98.5058931,63.4521739 L105.97026,63.4521739 L105.97026,38.2995652 C105.97026,23.468913 97.7230992,19.7621739 92.1693435,19.7621739 C88.1774656,19.7621739 85.3987328,20.8228261 82.8834046,22.7630435 C81.1471603,24.0897826 79.4962443,25.9413043 78.1940611,28.325 L78.0196947,28.325 C76.1981221,23.2952174 71.8575115,19.7621739 66.1293893,19.7621739 C59.1881221,19.7621739 55.2815725,23.5576087 52.9369008,27.6191304 L52.6772061,27.6191304 L52.3284733,20.7341304 L45.6469008,20.7341304 C45.9065954,24.2634783 45.9919237,27.8815217 45.9919237,32.2978261 L45.9919237,63.4521739 Z M176.362351,55.4215217 C173.323924,56.9219565 168.63829,57.8902174 164.037985,57.8902174 C149.803008,57.8902174 141.555847,48.5365217 141.555847,33.9719565 C141.555847,18.3504348 150.67113,9.43652174 164.383008,9.43652174 C169.246718,9.43652174 173.323924,10.4971739 176.187985,11.908913 L178.009557,5.64108696 C176.013618,4.58413043 171.413313,2.995 164.123313,2.995 C145.981786,2.995 133.572092,15.6156522 133.572092,34.2380435 C133.572092,53.7436957 145.981786,64.4241304 162.476107,64.4241304 C169.59174,64.4241304 175.145496,62.9236957 177.924229,61.5119565 L176.362351,55.4215217 Z M215.509466,37.238913 L215.509466,53.2152174 C215.509466,56.9219565 215.680122,60.54 216.203221,63.4521739 L209.258244,63.4521739 L208.649817,58.0676087 L208.390122,58.0676087 C206.04545,61.4232609 201.534183,64.4241304 195.542656,64.4241304 C187.039511,64.4241304 182.698901,58.3336957 182.698901,52.1545652 C182.698901,41.828913 191.725145,36.1782609 207.956061,36.2669565 L207.956061,35.3836957 C207.956061,31.8543478 207.002611,25.5015217 198.410427,25.5015217 C194.503878,25.5015217 190.422962,26.7358696 187.473573,28.676087 L185.737328,23.5576087 C189.209817,21.2626087 194.244183,19.7621739 199.538244,19.7621739 C212.382,19.7621739 215.509466,28.676087 215.509466,37.238913 Z M208.130427,49.065 L208.130427,41.6515217 C199.797939,41.4741304 190.337634,42.9745652 190.337634,51.2713043 C190.337634,56.3047826 193.635756,58.6847826 197.542305,58.6847826 C203.010733,58.6847826 206.479511,55.1554348 207.696366,51.5373913 C207.956061,50.7428261 208.130427,49.8595652 208.130427,49.065 Z M227.833832,63.4521739 L235.298198,63.4521739 L235.298198,37.6786957 C235.298198,36.3556522 235.472565,35.0326087 235.906626,33.8832609 C237.119771,30.0028261 240.59226,26.1186957 245.366931,26.1186957 C251.180382,26.1186957 254.133481,31.0597826 254.133481,37.856087 L254.133481,63.4521739 L261.597847,63.4521739 L261.597847,37.0615217 C261.597847,35.6497826 261.857542,34.2380435 262.206275,33.1773913 C263.504748,29.3819565 266.891908,26.1186957 271.232519,26.1186957 C277.394702,26.1186957 280.344092,31.0597826 280.344092,39.2678261 L280.344092,63.4521739 L287.808458,63.4521739 L287.808458,38.2995652 C287.808458,23.468913 279.565008,19.7621739 274.007542,19.7621739 C270.015664,19.7621739 267.236931,20.8228261 264.721603,22.7630435 C262.985359,24.0897826 261.338153,25.9413043 260.035969,28.325 L259.861603,28.325 C258.040031,23.2952174 253.69942,19.7621739 247.971298,19.7621739 C241.026321,19.7621739 237.119771,23.5576087 234.775099,27.6191304 L234.515405,27.6191304 L234.170382,20.7341304 L227.485099,20.7341304 C227.744794,24.2634783 227.833832,27.8815217 227.833832,32.2978261 L227.833832,63.4521739 Z M300.221863,80.928913 L300.221863,34.6778261 C300.221863,29.2082609 300.047496,24.7956522 299.87313,20.7341304 L306.732779,20.7341304 L307.077802,28.058913 L307.252168,28.058913 C310.375924,22.8517391 315.324962,19.7621739 322.180901,19.7621739 C332.334962,19.7621739 339.973695,28.5023913 339.973695,41.4741304 C339.973695,56.8332609 330.773084,64.4241304 320.878718,64.4241304 C315.324962,64.4241304 310.464962,61.9517391 307.945924,57.7165217 L307.771557,57.7165217 L307.771557,80.928913 L300.221863,80.928913 Z M307.771557,38.7393478 L307.771557,46.0641304 C307.771557,47.2134783 307.945924,48.2704348 308.12029,49.2423913 C309.507802,54.6269565 314.108107,58.3336957 319.576534,58.3336957 C327.649328,58.3336957 332.334962,51.626087 332.334962,41.828913 C332.334962,33.266087 327.909023,25.9413043 319.836229,25.9413043 C314.631206,25.9413043 309.767496,29.7367391 308.294656,35.561087 C308.034962,36.5330435 307.771557,37.6786957 307.771557,38.7393478 Z M384.763603,20.7341304 L377.12487,20.7341304 L377.12487,46.9473913 C377.12487,48.3591304 376.865176,49.7708696 376.431115,50.9202174 C375.039893,54.3608696 371.482076,57.978913 366.362382,57.978913 C359.417405,57.978913 356.987405,52.5093478 356.987405,44.3863043 L356.987405,20.7341304 L349.348672,20.7341304 L349.348672,45.7130435 C349.348672,60.7173913 357.247099,64.4241304 363.843344,64.4241304 C371.30771,64.4241304 375.733649,59.9228261 377.729588,56.4784783 L377.903954,56.4784783 L378.338015,63.4521739 L385.108626,63.4521739 C384.848931,60.0965217 384.763603,56.216087 384.763603,51.8034783 L384.763603,20.7341304 Z M394.483603,61.4232609 C397.432992,63.186087 401.688275,64.4241304 406.28858,64.4241304 C416.268275,64.4241304 421.996397,59.0395652 421.996397,51.5373913 C421.996397,45.1808696 418.264214,41.4741304 410.974214,38.6506522 C405.505786,36.5330435 402.990458,34.943913 402.990458,31.4145652 C402.990458,28.2363043 405.505786,25.5902174 410.020763,25.5902174 C413.927313,25.5902174 416.962031,27.0019565 418.612947,28.058913 L420.523557,22.4119565 C418.178885,21.0002174 414.446702,19.7621739 410.19513,19.7621739 C401.165176,19.7621739 395.696748,25.4128261 395.696748,32.2978261 C395.696748,37.4163043 399.258275,41.6515217 406.807969,44.3863043 C412.450763,46.5076087 414.621069,48.5365217 414.621069,52.2432609 C414.621069,55.7726087 412.016702,58.596087 406.462947,58.596087 C402.641725,58.596087 398.649847,57.0106522 396.394214,55.5102174 L394.483603,61.4232609 Z M494.992855,32.2091304 L475.723511,32.2091304 L475.723511,38.3845652 L487.617527,38.3845652 L487.617527,56.1273913 C485.881282,57.0106522 482.494122,57.7165217 477.548794,57.7165217 C463.922244,57.7165217 454.981328,48.8026087 454.981328,33.7095652 C454.981328,18.793913 464.267267,9.79130435 478.502244,9.79130435 C484.404733,9.79130435 488.311282,10.9369565 491.435038,12.3486957 L493.256611,6.08456522 C490.741282,4.84652174 485.447221,3.34608696 478.676611,3.34608696 C459.058534,3.34608696 447.082901,16.3215217 446.993863,34.0606522 C446.993863,43.3293478 450.121328,51.2713043 455.155695,56.216087 C460.883817,61.7743478 468.173817,64.0693478 477.025695,64.0693478 C484.924122,64.0693478 491.609405,62.0404348 494.992855,60.806087 L494.992855,32.2091304 Z M541.429969,20.7341304 L533.791237,20.7341304 L533.791237,46.9473913 C533.791237,48.3591304 533.531542,49.7708696 533.097481,50.9202174 C531.709969,54.3608696 528.152153,57.978913 523.028748,57.978913 C516.087481,57.978913 513.653771,52.5093478 513.653771,44.3863043 L513.653771,20.7341304 L506.018748,20.7341304 L506.018748,45.7130435 C506.018748,60.7173913 513.917176,64.4241304 520.51342,64.4241304 C527.977786,64.4241304 532.403725,59.9228261 534.399664,56.4784783 L534.574031,56.4784783 L535.008092,63.4521739 L541.778702,63.4521739 C541.519008,60.0965217 541.429969,56.216087 541.429969,51.8034783 L541.429969,20.7341304 Z M554.103069,63.4521739 L561.567435,63.4521739 L561.567435,37.6786957 C561.567435,36.3556522 561.741802,35.0326087 562.175863,33.8832609 C563.389008,30.0028261 566.861496,26.1186957 571.636168,26.1186957 C577.449618,26.1186957 580.402718,31.0597826 580.402718,37.856087 L580.402718,63.4521739 L587.867084,63.4521739 L587.867084,37.0615217 C587.867084,35.6497826 588.126779,34.2380435 588.475511,33.1773913 C589.777695,29.3819565 593.161145,26.1186957 597.501756,26.1186957 C603.663939,26.1186957 606.617038,31.0597826 606.617038,39.2678261 L606.617038,63.4521739 L614.077695,63.4521739 L614.077695,38.2995652 C614.077695,23.468913 605.834244,19.7621739 600.280489,19.7621739 C596.284901,19.7621739 593.509878,20.8228261 590.99084,22.7630435 C589.254595,24.0897826 587.607389,25.9413043 586.305206,28.325 L586.13084,28.325 C584.309267,23.2952174 579.968656,19.7621739 574.240534,19.7621739 C567.295557,19.7621739 563.389008,23.5576087 561.048046,27.6191304 L560.784641,27.6191304 L560.439618,20.7341304 L553.754336,20.7341304 C554.01774,24.2634783 554.103069,27.8815217 554.103069,32.2978261 L554.103069,63.4521739 Z M626.491099,63.4521739 L633.955466,63.4521739 L633.955466,37.6786957 C633.955466,36.3556522 634.129832,35.0326087 634.563893,33.8832609 C635.777038,30.0028261 639.249527,26.1186957 644.024198,26.1186957 C649.841359,26.1186957 652.790748,31.0597826 652.790748,37.856087 L652.790748,63.4521739 L660.255115,63.4521739 L660.255115,37.0615217 C660.255115,35.6497826 660.514809,34.2380435 660.863542,33.1773913 C662.165725,29.3819565 665.549176,26.1186957 669.889786,26.1186957 C676.051969,26.1186957 679.005069,31.0597826 679.005069,39.2678261 L679.005069,63.4521739 L686.469435,63.4521739 L686.469435,38.2995652 C686.469435,23.468913 678.222275,19.7621739 672.668519,19.7621739 C668.676641,19.7621739 665.897908,20.8228261 663.37887,22.7630435 C661.642626,24.0897826 659.99542,25.9413043 658.693237,28.325 L658.51887,28.325 C656.697298,23.2952174 652.356687,19.7621739 646.628565,19.7621739 C639.683588,19.7621739 635.777038,23.5576087 633.436076,27.6191304 L633.176382,27.6191304 L632.827649,20.7341304 L626.146076,20.7341304 C626.405771,24.2634783 626.491099,27.8815217 626.491099,32.2978261 L626.491099,63.4521739 Z M732.643145,43.5067391 L703.134412,43.5067391 C703.308779,54.0097826 709.905023,58.3336957 717.540046,58.3336957 C723.008473,58.3336957 726.310305,57.3617391 729.170656,56.1273913 L730.47284,61.6856522 C727.783145,62.9236957 723.18284,64.4241304 716.501267,64.4241304 C703.568473,64.4241304 695.844412,55.683913 695.844412,42.8008696 C695.844412,29.9141304 703.308779,19.7621739 715.544107,19.7621739 C729.259695,19.7621739 732.90655,32.0317391 732.90655,39.885 C732.90655,41.4741304 732.732183,42.7121739 732.643145,43.5067391 Z M703.21974,37.9447826 L725.527511,37.9447826 C725.61284,33.0036957 723.531573,25.3241304 714.939389,25.3241304 C707.211618,25.3241304 703.828168,32.5602174 703.21974,37.9447826 Z M742.366855,63.4521739 L749.91655,63.4521739 L749.91655,40.6795652 C749.91655,39.3565217 750.090916,38.1221739 750.265282,37.0615217 C751.304061,31.2371739 755.125282,27.0906522 760.504672,27.0906522 C761.54716,27.0906522 762.329954,27.1756522 763.109038,27.3530435 L763.109038,20.0282609 C762.415282,19.8508696 761.806855,19.7621739 760.938733,19.7621739 C755.819038,19.7621739 751.218733,23.3802174 749.308122,29.1195652 L748.963099,29.1195652 L748.703405,20.7341304 L742.018122,20.7341304 C742.277817,24.7069565 742.366855,29.0308696 742.366855,34.0606522 L742.366855,63.4521739 Z M767.798382,61.4232609 C770.747771,63.186087 775.003053,64.4241304 779.603359,64.4241304 C789.583053,64.4241304 795.311176,59.0395652 795.311176,51.5373913 C795.311176,45.1808696 791.578992,41.4741304 784.288992,38.6506522 C778.820565,36.5330435 776.301527,34.943913 776.301527,31.4145652 C776.301527,28.2363043 778.820565,25.5902174 783.335542,25.5902174 C787.238382,25.5902174 790.276809,27.0019565 791.927725,28.058913 L793.834626,22.4119565 C791.493664,21.0002174 787.761481,19.7621739 783.506198,19.7621739 C774.479954,19.7621739 769.011527,25.4128261 769.011527,32.2978261 C769.011527,37.4163043 772.569344,41.6515217 780.122748,44.3863043 C785.765542,46.5076087 787.935847,48.5365217 787.935847,52.2432609 C787.935847,55.7726087 785.331481,58.596087 779.774015,58.596087 C775.956504,58.596087 771.964626,57.0106522 769.705282,55.5102174 L767.798382,61.4232609 Z M805.120214,52.4206522 L805.120214,0.788695652 L812.669908,0.788695652 L812.669908,27.6191304 L812.844275,27.6191304 C815.533969,22.8517391 820.397679,19.7621739 827.16829,19.7621739 C837.582046,19.7621739 844.961084,28.591087 844.872046,41.5628261 C844.872046,56.8332609 835.41174,64.4241304 826.036763,64.4241304 C819.963618,64.4241304 815.099908,62.0404348 811.976153,56.3897826 L811.716458,56.3897826 L811.367725,63.4521739 L804.771481,63.4521739 C804.945847,60.54 805.120214,56.216087 805.120214,52.4206522 Z M812.669908,38.6506522 L812.669908,46.3302174 C812.669908,47.3021739 812.844275,48.2704348 813.018641,49.1536957 C814.495191,54.5382609 818.92113,58.245 824.474885,58.245 C832.462351,58.245 837.233313,51.626087 837.233313,41.828913 C837.233313,33.266087 832.896412,25.9413043 824.73458,25.9413043 C819.529557,25.9413043 814.665847,29.5593478 813.103969,35.4723913 C812.933313,36.3556522 812.669908,37.4163043 812.669908,38.6506522 Z M884.01916,37.238913 L884.01916,53.2152174 C884.01916,56.9219565 884.193527,60.54 884.712916,63.4521739 L877.767939,63.4521739 L877.163221,58.0676087 L876.899817,58.0676087 C874.558855,61.4232609 870.043878,64.4241304 864.056061,64.4241304 C855.549206,64.4241304 851.208595,58.3336957 851.208595,52.1545652 C851.208595,41.828913 860.23484,36.1782609 876.465756,36.2669565 L876.465756,35.3836957 C876.465756,31.8543478 875.512305,25.5015217 866.920122,25.5015217 C863.013573,25.5015217 858.932656,26.7358696 855.983267,28.676087 L854.247023,23.5576087 C857.719511,21.2626087 862.753878,19.7621739 868.047939,19.7621739 C880.895405,19.7621739 884.01916,28.676087 884.01916,37.238913 Z M876.640122,49.065 L876.640122,41.6515217 C868.307634,41.4741304 858.847328,42.9745652 858.847328,51.2713043 C858.847328,56.3047826 862.14545,58.6847826 866.052,58.6847826 C871.520427,58.6847826 874.992916,55.1554348 876.206061,51.5373913 C876.465756,50.7428261 876.640122,49.8595652 876.640122,49.065 Z M924.987847,56.0386957 C922.817542,57.0106522 919.953481,58.1563043 915.61287,58.1563043 C907.280382,58.1563043 901.02916,52.0658696 901.02916,42.18 C901.02916,33.266087 906.237893,26.03 915.872565,26.03 C920.038809,26.03 922.90287,27.0019565 924.724443,28.058913 L926.460687,22.0571739 C924.37942,21.0002174 920.387542,19.8508696 915.872565,19.8508696 C902.160687,19.8508696 893.305099,29.3819565 893.305099,42.5347826 C893.305099,55.5952174 901.55226,64.4241304 914.225359,64.4241304 C919.864443,64.4241304 924.290382,62.9236957 926.290031,61.8630435 L924.987847,56.0386957 Z M935.227237,63.4521739 L942.865969,63.4521739 L942.865969,37.6786957 C942.865969,36.1782609 942.955008,35.0326087 943.389069,33.9719565 C944.77658,29.7367391 948.68313,26.2073913 953.628458,26.2073913 C960.83313,26.2073913 963.352168,32.0317391 963.352168,38.9167391 L963.352168,63.4521739 L970.990901,63.4521739 L970.990901,38.0334783 C970.990901,23.2952174 961.960947,19.7621739 956.321863,19.7621739 C953.457802,19.7621739 950.764397,20.6454348 948.508763,21.9684783 C946.164092,23.2952174 944.257191,25.2354348 943.040336,27.4417391 L942.865969,27.4417391 L942.865969,0.788695652 L935.227237,0.788695652 L935.227237,63.4521739 Z" id="path-3"></path>
    </defs>
    <g id="community" stroke="none" stroke-width="1" fill="none" fill-rule="evenodd">
        <rect id="Rectangle" fill-opacity="0.316151495" fill="#C7C7C7" x="0" y="0" width="3149" height="2065"></rect>
        <g id="Group" transform="translate(782.000000, 810.000000)">
            <polygon id="Fill-1" fill="#FFFFFF" points="93.9987647 163 0 108.664193 188.001235 0 282 54.3320966"></polygon>
            <polygon id="Stroke-2" stroke="#000000" stroke-width="2" stroke-linecap="round" stroke-linejoin="round" points="93.9987647 163 0 108.664193 188.001235 0 282 54.3320966"></polygon>
            <polygon id="Fill-3" fill="#FFFFFF" points="283 54.3320966 377.001235 0 565 108.664193 470.998765 163"></polygon>
            <polygon id="Stroke-4" stroke="#000000" stroke-width="2" stroke-linecap="round" stroke-linejoin="round" points="283 54.3320966 377.001235 0 565 108.664193 470.998765 163"></polygon>
            <polygon id="Fill-5" fill="#FFFFFF" points="283 271 471 162.501852 283 54 95 162.501852"></polygon>
            <polygon id="Stroke-6" stroke="#000000" stroke-width="2" stroke-linecap="round" stroke-linejoin="round" points="283 271 471 162.501852 283 54 95 162.501852"></polygon>
            <polygon id="Fill-7" fill="#FFFFFF" points="283 54 283 228.155561 95 337 95 162.848155"></polygon>
            <polygon id="Stroke-8" stroke="#000000" stroke-width="2" stroke-linecap="round" stroke-linejoin="round" points="283 54 283 228.155561 95 337 95 162.848155"></polygon>
            <polygon id="Fill-9" fill="#FFFFFF" points="471 337 471 162.848155 283 54 283 228.155561"></polygon>
            <polygon id="Stroke-10" stroke="#000000" stroke-width="2" stroke-linecap="round" stroke-linejoin="round" points="471 337 471 162.848155 283 54 283 228.155561"></polygon>
            <polygon id="Fill-11" fill="#FFFFFF" points="245 97.601475 282.597776 76 339 108.398525 301.398518 130"></polygon>
            <polygon id="Stroke-12" stroke="#DD1166" stroke-width="1.5" stroke-linecap="round" stroke-linejoin="round" points="245 97.601475 282.597776 76 339 108.398525 301.398518 130"></polygon>
            <polygon id="Fill-13" fill="#FFFFFF" points="302 130.800744 302 218 340 196.199256 340 109"></polygon>
            <polygon id="Stroke-14" stroke="#DD1166" stroke-width="1.5" stroke-linecap="round" stroke-linejoin="round" points="302 130.800744 302 218 340 196.199256 340 109"></polygon>
            <polygon id="Fill-15" fill="#FFFFFF" points="245 98 301 130.72558 301 218 245 185.270696"></polygon>
            <polygon id="Stroke-16" stroke="#DD1166" stroke-width="1.5" stroke-linecap="round" stroke-linejoin="round" points="245 98 301 130.72558 301 218 245 185.270696"></polygon>
            <polygon id="Fill-17" fill="#FFFFFF" points="320 142 339 131 358 142 339 153"></polygon>
            <polygon id="Stroke-18" stroke="#DD1166" stroke-width="1.5" stroke-linecap="round" stroke-linejoin="round" points="320 142 339 131 358 142 339 153"></polygon>
            <polygon id="Fill-19" fill="#FFFFFF" points="339 151.889302 339 239 358 228.110698 358 141"></polygon>
            <polygon id="Stroke-20" stroke="#DD1166" stroke-width="1.5" stroke-linecap="round" stroke-linejoin="round" points="339 151.889302 339 239 358 228.110698 358 141"></polygon>
            <polygon id="Fill-21" fill="#FFFFFF" points="320 141 339 151.889302 339 239 320 228.110698"></polygon>
            <polygon id="Stroke-22" stroke="#DD1166" stroke-width="1.5" stroke-linecap="round" stroke-linejoin="round" points="320 141 339 151.889302 339 239 320 228.110698"></polygon>
            <polygon id="Fill-23" fill="#FFFFFF" points="339 152 357.666667 141 395 163 376.333333 174"></polygon>
            <polygon id="Stroke-24" stroke="#DD1166" stroke-width="1.5" stroke-linecap="round" stroke-linejoin="round" points="339 152 357.666667 141 395 163 376.333333 174"></polygon>
            <polygon id="Fill-25" fill="#FFFFFF" points="377 173.889715 377 261 396 250.110285 396 163"></polygon>
            <polygon id="Stroke-26" stroke="#DD1166" stroke-width="1.5" stroke-linecap="round" stroke-linejoin="round" points="377 173.889715 377 261 396 250.110285 396 163"></polygon>
            <polygon id="Fill-27" fill="#FFFFFF" points="339 152 377 173.801489 377 261 339 239.202233"></polygon>
            <polygon id="Stroke-28" stroke="#DD1166" stroke-width="1.5" stroke-linecap="round" stroke-linejoin="round" points="339 152 377 173.801489 377 261 339 239.202233"></polygon>
            <polygon id="Fill-29" fill="#FFFFFF" points="207 141.5 244.501848 120 282 141.5 244.501848 163"></polygon>
            <polygon id="Stroke-30" stroke="#DD1166" stroke-width="1.5" stroke-linecap="round" stroke-linejoin="round" points="207 141.5 244.501848 120 282 141.5 244.501848 163"></polygon>
            <polygon id="Fill-31" fill="#FFFFFF" points="245 162.801489 245 250 283 228.202233 283 141"></polygon>
            <polygon id="Stroke-32" stroke="#DD1166" stroke-width="1.5" stroke-linecap="round" stroke-linejoin="round" points="245 162.801489 245 250 283 228.202233 283 141"></polygon>
            <polygon id="Fill-33" fill="#FFFFFF" points="207 141 245 162.801489 245 250 207 228.202233"></polygon>
            <polygon id="Stroke-34" stroke="#DD1166" stroke-width="1.5" stroke-linecap="round" stroke-linejoin="round" points="207 141 245 162.801489 245 250 207 228.202233"></polygon>
            <polygon id="Fill-35" fill="#FFFFFF" points="302 174.001252 320.666667 163 358 184.998748 339.333333 196"></polygon>
            <polygon id="Stroke-36" stroke="#DD1166" stroke-width="1.5" stroke-linecap="round" stroke-linejoin="round" points="302 174.001252 320.666667 163 358 184.998748 339.333333 196"></polygon>
            <polygon id="Fill-37" fill="#FFFFFF" points="339 195.889302 339 283 358 272.110698 358 185"></polygon>
            <polygon id="Stroke-38" stroke="#DD1166" stroke-width="1.5" stroke-linecap="round" stroke-linejoin="round" points="339 195.889302 339 283 358 272.110698 358 185"></polygon>
            <polygon id="Fill-39" fill="#FFFFFF" points="302 174 340 195.797767 340 283 302 261.198511"></polygon>
            <polygon id="Stroke-40" stroke="#DD1166" stroke-width="1.5" stroke-linecap="round" stroke-linejoin="round" points="302 174 340 195.797767 340 283 302 261.198511"></polygon>
            <polygon id="Fill-41" fill="#FFFFFF" points="358 207 395.333333 185 414 196 376.666667 218"></polygon>
            <polygon id="Stroke-42" stroke="#DD1166" stroke-width="1.5" stroke-linecap="round" stroke-linejoin="round" points="358 207 395.333333 185 414 196 376.666667 218"></polygon>
            <polygon id="Fill-43" fill="#FFFFFF" points="377 217.800744 377 305 415 283.199256 415 196"></polygon>
            <polygon id="Stroke-44" stroke="#DD1166" stroke-width="1.5" stroke-linecap="round" stroke-linejoin="round" points="377 217.800744 377 305 415 283.199256 415 196"></polygon>
            <polygon id="Fill-45" fill="#FFFFFF" points="358 207 377 217.889302 377 305 358 294.110698"></polygon>
            <polygon id="Stroke-46" stroke="#DD1166" stroke-width="1.5" stroke-linecap="round" stroke-linejoin="round" points="358 207 377 217.889302 377 305 358 294.110698"></polygon>
            <polygon id="Fill-47" fill="#FFFFFF" points="377 239.501835 414.5 218 452 239.501835 414.5 261"></polygon>
            <polygon id="Stroke-48" stroke="#DD1166" stroke-width="1.5" stroke-linecap="round" stroke-linejoin="round" points="377 239.501835 414.5 218 452 239.501835 414.5 261"></polygon>
            <polygon id="Fill-49" fill="#FFFFFF" points="415 260.797767 415 348 453 326.198511 453 239"></polygon>
            <polygon id="Stroke-50" stroke="#DD1166" stroke-width="1.5" stroke-linecap="round" stroke-linejoin="round" points="415 260.797767 415 348 453 326.198511 453 239"></polygon>
            <polygon id="Fill-51" fill="#FFFFFF" points="377 239 415 260.797767 415 348 377 326.198511"></polygon>
            <polygon id="Stroke-52" stroke="#DD1166" stroke-width="1.5" stroke-linecap="round" stroke-linejoin="round" points="377 239 415 260.797767 415 348 377 326.198511"></polygon>
            <polygon id="Fill-53" fill="#FFFFFF" points="170 163 189 152 208 163 189 174"></polygon>
            <polygon id="Stroke-54" stroke="#DD1166" stroke-width="1.5" stroke-linecap="round" stroke-linejoin="round" points="170 163 189 152 208 163 189 174"></polygon>
            <polygon id="Fill-55" fill="#FFFFFF" points="189 173.889715 189 261 208 250.110285 208 163"></polygon>
            <polygon id="Stroke-56" stroke="#DD1166" stroke-width="1.5" stroke-linecap="round" stroke-linejoin="round" points="189 173.889715 189 261 208 250.110285 208 163"></polygon>
            <polygon id="Fill-57" fill="#FFFFFF" points="170 163 189 173.889715 189 261 170 250.110285"></polygon>
            <polygon id="Stroke-58" stroke="#DD1166" stroke-width="1.5" stroke-linecap="round" stroke-linejoin="round" points="170 163 189 173.889715 189 261 170 250.110285"></polygon>
            <polygon id="Fill-59" fill="#FFFFFF" points="189 196 208 185 227 196 208 207"></polygon>
            <polygon id="Stroke-60" stroke="#DD1166" stroke-width="1.5" stroke-linecap="round" stroke-linejoin="round" points="189 196 208 185 227 196 208 207"></polygon>
            <polygon id="Fill-61" fill="#FFFFFF" points="207 206.889302 207 294 226 283.110698 226 196"></polygon>
            <polygon id="Stroke-62" stroke="#DD1166" stroke-width="1.5" stroke-linecap="round" stroke-linejoin="round" points="207 206.889302 207 294 226 283.110698 226 196"></polygon>
            <polygon id="Fill-63" fill="#FFFFFF" points="189 196 208 206.889302 208 294 189 283.110698"></polygon>
            <polygon id="Stroke-64" stroke="#DD1166" stroke-width="1.5" stroke-linecap="round" stroke-linejoin="round" points="189 196 208 206.889302 208 294 189 283.110698"></polygon>
            <polygon id="Fill-65" fill="#FFFFFF" points="283 272 302 261 321 272 302 283"></polygon>
            <polygon id="Stroke-66" stroke="#DD1166" stroke-width="1.5" stroke-linecap="round" stroke-linejoin="round" points="283 272 302 261 321 272 302 283"></polygon>
            <polygon id="Fill-67" fill="#FFFFFF" points="302 282.889302 302 370 321 359.110698 321 272"></polygon>
            <polygon id="Stroke-68" stroke="#DD1166" stroke-width="1.5" stroke-linecap="round" stroke-linejoin="round" points="302 282.889302 302 370 321 359.110698 321 272"></polygon>
            <polygon id="Fill-69" fill="#FFFFFF" points="283 272 302 282.889302 302 370 283 359.110698"></polygon>
            <polygon id="Stroke-70" stroke="#DD1166" stroke-width="1.5" stroke-linecap="round" stroke-linejoin="round" points="283 272 302 282.889302 302 370 283 359.110698"></polygon>
            <polygon id="Fill-71" fill="#FFFFFF" points="320 271.398525 376.4 239 414 260.597787 357.6 293"></polygon>
            <polygon id="Stroke-72" stroke="#DD1166" stroke-width="1.5" stroke-linecap="round" stroke-linejoin="round" points="320 271.398525 376.4 239 414 260.597787 357.6 293"></polygon>
            <polygon id="Fill-73" fill="#FFFFFF" points="358 293.729304 358 381 414 348.27442 414 261"></polygon>
            <polygon id="Stroke-74" stroke="#DD1166" stroke-width="1.5" stroke-linecap="round" stroke-linejoin="round" points="358 293.729304 358 381 414 348.27442 414 261"></polygon>
            <polygon id="Fill-75" fill="#FFFFFF" points="320 272 358 293.801489 358 381 320 359.202233"></polygon>
            <polygon id="Stroke-76" stroke="#DD1166" stroke-width="1.5" stroke-linecap="round" stroke-linejoin="round" points="320 272 358 293.801489 358 381 320 359.202233"></polygon>
            <polygon id="Fill-77" fill="#FFFFFF" points="245 272 263.667893 261 301 283 282.332107 294"></polygon>
            <polygon id="Stroke-78" stroke="#DD1166" stroke-width="1.5" stroke-linecap="round" stroke-linejoin="round" points="245 272 263.667893 261 301 283 282.332107 294"></polygon>
            <polygon id="Fill-79" fill="#FFFFFF" points="283 293.889715 283 381 302 370.114003 302 283"></polygon>
            <polygon id="Stroke-80" stroke="#DD1166" stroke-width="1.5" stroke-linecap="round" stroke-linejoin="round" points="283 293.889715 283 381 302 370.114003 302 283"></polygon>
            <polygon id="Fill-81" fill="#FFFFFF" points="245 272 283 293.801489 283 381 245 359.202233"></polygon>
            <polygon id="Stroke-82" stroke="#DD1166" stroke-width="1.5" stroke-linecap="round" stroke-linejoin="round" points="245 272 283 293.801489 283 381 245 359.202233"></polygon>
            <polygon id="Fill-83" fill="#FFFFFF" points="132 184.597787 169.6 163 226 195.398525 188.4 217"></polygon>
            <polygon id="Stroke-84" stroke="#DD1166" stroke-width="1.5" stroke-linecap="round" stroke-linejoin="round" points="132 184.597787 169.6 163 226 195.398525 188.4 217"></polygon>
            <polygon id="Fill-85" fill="#FFFFFF" points="189 217.800744 189 305 227 283.199256 227 196"></polygon>
            <polygon id="Stroke-86" stroke="#DD1166" stroke-width="1.5" stroke-linecap="round" stroke-linejoin="round" points="189 217.800744 189 305 227 283.199256 227 196"></polygon>
            <polygon id="Fill-87" fill="#FFFFFF" points="132 185 188 217.728289 188 305 132 272.271711"></polygon>
            <polygon id="Stroke-88" stroke="#DD1166" stroke-width="1.5" stroke-linecap="round" stroke-linejoin="round" points="132 185 188 217.728289 188 305 132 272.271711"></polygon>
            <polygon id="Fill-89" fill="#FFFFFF" points="189 260.998748 226.333333 239 245 249.997496 207.666667 272"></polygon>
            <polygon id="Stroke-90" stroke="#DD1166" stroke-width="1.5" stroke-linecap="round" stroke-linejoin="round" points="189 260.998748 226.333333 239 245 249.997496 207.666667 272"></polygon>
            <polygon id="Fill-91" fill="#FFFFFF" points="207 271.800744 207 359 245 337.199256 245 250"></polygon>
            <polygon id="Stroke-92" stroke="#DD1166" stroke-width="1.5" stroke-linecap="round" stroke-linejoin="round" points="207 271.800744 207 359 245 337.199256 245 250"></polygon>
            <polygon id="Fill-93" fill="#FFFFFF" points="189 261 208 271.889302 208 359 189 348.110698"></polygon>
            <polygon id="Stroke-94" stroke="#DD1166" stroke-width="1.5" stroke-linecap="round" stroke-linejoin="round" points="189 261 208 271.889302 208 359 189 348.110698"></polygon>
            <polygon id="Fill-95" fill="#FFFFFF" points="113 239.001252 131.666667 228 169 249.998748 150.333333 261"></polygon>
            <polygon id="Stroke-96" stroke="#DD1166" stroke-width="1.5" stroke-linecap="round" stroke-linejoin="round" points="113 239.001252 131.666667 228 169 249.998748 150.333333 261"></polygon>
            <polygon id="Fill-97" fill="#FFFFFF" points="151 260.889302 151 348 170 337.110698 170 250"></polygon>
            <polygon id="Stroke-98" stroke="#DD1166" stroke-width="1.5" stroke-linecap="round" stroke-linejoin="round" points="151 260.889302 151 348 170 337.110698 170 250"></polygon>
            <polygon id="Fill-99" fill="#FFFFFF" points="113 239 151 260.797767 151 348 113 326.198511"></polygon>
            <polygon id="Stroke-100" stroke="#DD1166" stroke-width="1.5" stroke-linecap="round" stroke-linejoin="round" points="113 239 151 260.797767 151 348 113 326.198511"></polygon>
            <polygon id="Fill-101" fill="#FFFFFF" points="151 261 169.666667 250 207 272 188.333333 283"></polygon>
            <polygon id="Stroke-102" stroke="#DD1166" stroke-width="1.5" stroke-linecap="round" stroke-linejoin="round" points="151 261 169.666667 250 207 272 188.333333 283"></polygon>
            <polygon id="Fill-103" fill="#FFFFFF" points="189 282.889302 189 370 208 359.110698 208 272"></polygon>
            <polygon id="Stroke-104" stroke="#DD1166" stroke-width="1.5" stroke-linecap="round" stroke-linejoin="round" points="189 282.889302 189 370 208 359.110698 208 272"></polygon>
            <polygon id="Fill-105" fill="#FFFFFF" points="151 261 189 282.800744 189 370 151 348.199256"></polygon>
            <polygon id="Stroke-106" stroke="#DD1166" stroke-width="1.5" stroke-linecap="round" stroke-linejoin="round" points="151 261 189 282.800744 189 370 151 348.199256"></polygon>
            <polygon id="Fill-107" fill="#FFFFFF" points="264 283 282.998127 272 302 283 282.998127 294"></polygon>
            <polygon id="Stroke-108" stroke="#DD1166" stroke-width="1.5" stroke-linecap="round" stroke-linejoin="round" points="264 283 282.998127 272 302 283 282.998127 294"></polygon>
            <polygon id="Fill-109" fill="#FFFFFF" points="283 293.889715 283 381 302 370.114003 302 283"></polygon>
            <polygon id="Stroke-110" stroke="#DD1166" stroke-width="1.5" stroke-linecap="round" stroke-linejoin="round" points="283 293.889715 283 381 302 370.114003 302 283"></polygon>
            <polygon id="Fill-111" fill="#FFFFFF" points="264 283 283 293.889715 283 381 264 370.114003"></polygon>
            <polygon id="Stroke-112" stroke="#DD1166" stroke-width="1.5" stroke-linecap="round" stroke-linejoin="round" points="264 283 283 293.889715 283 381 264 370.114003"></polygon>
            <polygon id="Fill-113" fill="#FFFFFF" points="283 293.501835 320.5 272 358 293.501835 320.5 315"></polygon>
            <polygon id="Stroke-114" stroke="#DD1166" stroke-width="1.5" stroke-linecap="round" stroke-linejoin="round" points="283 293.501835 320.5 272 358 293.501835 320.5 315"></polygon>
            <polygon id="Fill-115" fill="#FFFFFF" points="320 315.797767 320 403 358 381.198511 358 294"></polygon>
            <polygon id="Stroke-116" stroke="#DD1166" stroke-width="1.5" stroke-linecap="round" stroke-linejoin="round" points="320 315.797767 320 403 358 381.198511 358 294"></polygon>
            <polygon id="Fill-117" fill="#FFFFFF" points="283 294 321 315.797767 321 403 283 381.198511"></polygon>
            <polygon id="Stroke-118" stroke="#DD1166" stroke-width="1.5" stroke-linecap="round" stroke-linejoin="round" points="283 294 321 315.797767 321 403 283 381.198511"></polygon>
            <polygon id="Fill-119" fill="#FFFFFF" points="226 304.601475 263.601482 283 320 315.398525 282.398518 337"></polygon>
            <polygon id="Stroke-120" stroke="#DD1166" stroke-width="1.5" stroke-linecap="round" stroke-linejoin="round" points="226 304.601475 263.601482 283 320 315.398525 282.398518 337"></polygon>
            <polygon id="Fill-121" fill="#FFFFFF" points="283 336.800744 283 424 321 402.199256 321 315"></polygon>
            <polygon id="Stroke-122" stroke="#DD1166" stroke-width="1.5" stroke-linecap="round" stroke-linejoin="round" points="283 336.800744 283 424 321 402.199256 321 315"></polygon>
            <polygon id="Fill-123" fill="#FFFFFF" points="226 304 282 336.72558 282 424 226 391.270696"></polygon>
            <polygon id="Stroke-124" stroke="#DD1166" stroke-width="1.5" stroke-linecap="round" stroke-linejoin="round" points="226 304 282 336.72558 282 424 226 391.270696"></polygon>
            <polygon id="Fill-125" fill="#FFFFFF" points="283 206.6 320.6 185 377 217.4 339.4 239"></polygon>
            <polygon id="Stroke-126" stroke="#DD1166" stroke-width="1.5" stroke-linecap="round" stroke-linejoin="round" points="283 206.6 320.6 185 377 217.4 339.4 239"></polygon>
            <polygon id="Fill-127" fill="#FFFFFF" points="339 239.801489 339 327 377 305.202233 377 218"></polygon>
            <polygon id="Stroke-128" stroke="#DD1166" stroke-width="1.5" stroke-linecap="round" stroke-linejoin="round" points="339 239.801489 339 327 377 305.202233 377 218"></polygon>
            <polygon id="Fill-129" fill="#FFFFFF" points="283 207 339 239.729304 339 327 283 294.27442"></polygon>
            <polygon id="Stroke-130" stroke="#DD1166" stroke-width="1.5" stroke-linecap="round" stroke-linejoin="round" points="283 207 339 239.729304 339 327 283 294.27442"></polygon>
            <polygon id="Fill-131" fill="#FFFFFF" points="207 228.501835 244.501848 207 282 228.501835 244.501848 250"></polygon>
            <polygon id="Stroke-132" stroke="#DD1166" stroke-width="1.5" stroke-linecap="round" stroke-linejoin="round" points="207 228.501835 244.501848 207 282 228.501835 244.501848 250"></polygon>
            <polygon id="Fill-133" fill="#FFFFFF" points="245 249.797767 245 337 283 315.198511 283 228"></polygon>
            <polygon id="Stroke-134" stroke="#DD1166" stroke-width="1.5" stroke-linecap="round" stroke-linejoin="round" points="245 249.797767 245 337 283 315.198511 283 228"></polygon>
            <polygon id="Fill-135" fill="#FFFFFF" points="207 228 245 249.797767 245 337 207 315.198511"></polygon>
            <polygon id="Stroke-136" stroke="#DD1166" stroke-width="1.5" stroke-linecap="round" stroke-linejoin="round" points="207 228 245 249.797767 245 337 207 315.198511"></polygon>
            <polygon id="Fill-137" fill="#FFFFFF" points="264 260.597787 301.597776 239 358 271.398525 320.398518 293"></polygon>
            <polygon id="Stroke-138" stroke="#DD1166" stroke-width="1.5" stroke-linecap="round" stroke-linejoin="round" points="264 260.597787 301.597776 239 358 271.398525 320.398518 293"></polygon>
            <polygon id="Fill-139" fill="#FFFFFF" points="320 293.801489 320 381 358 359.202233 358 272"></polygon>
            <polygon id="Stroke-140" stroke="#DD1166" stroke-width="1.5" stroke-linecap="round" stroke-linejoin="round" points="320 293.801489 320 381 358 359.202233 358 272"></polygon>
            <polygon id="Fill-141" fill="#FFFFFF" points="264 261 320 293.729304 320 381 264 348.27442"></polygon>
            <polygon id="Stroke-142" stroke="#DD1166" stroke-width="1.5" stroke-linecap="round" stroke-linejoin="round" points="264 261 320 293.729304 320 381 264 348.27442"></polygon>
            <polygon id="Fill-143" fill="#FFFFFF" points="283 446 471 337.151845 471 163 283 271.844439"></polygon>
            <polygon id="Stroke-144" stroke="#000000" stroke-width="2" stroke-linecap="round" stroke-linejoin="round" points="283 446 471 337.151845 471 163 283 271.844439"></polygon>
            <polygon id="Fill-145" fill="#FFFFFF" points="95 337.151845 283 446 283 271.844439 95 163"></polygon>
            <polygon id="Stroke-146" stroke="#000000" stroke-width="2" stroke-linecap="round" stroke-linejoin="round" points="95 337.151845 283 446 283 271.844439 95 163"></polygon>
            <polygon id="Fill-147" fill="#FFFFFF" points="470.998765 163 565 217.333333 377.001235 326 283 271.666667"></polygon>
            <polygon id="Stroke-148" stroke="#000000" stroke-width="2" stroke-linecap="round" stroke-linejoin="round" points="470.998765 163 565 217.333333 377.001235 326 283 271.666667"></polygon>
            <polygon id="Fill-149" fill="#FFFFFF" points="93.9987647 163 0 217.333333 188.001235 326 282 271.666667"></polygon>
            <polygon id="Stroke-150" stroke="#000000" stroke-width="2" stroke-linecap="round" stroke-linejoin="round" points="93.9987647 163 0 217.333333 188.001235 326 282 271.666667"></polygon>
            <g id="Group-153" transform="translate(620.000000, 158.000000)">
                <mask id="mask-2" fill="white">
                    <use xlink:href="#path-1"></use>
                </mask>
                <g id="Clip-152"></g>
                <polygon id="Fill-151" fill="#CD2564" mask="url(#mask-2)" points="-22.7747215 105.437091 899.767304 105.437091 899.767304 -22.9339091 -22.7747215 -22.9339091"></polygon>
            </g>
            <g id="Group-156" transform="translate(615.000000, 274.000000)">
                <mask id="mask-4" fill="white">
                    <use xlink:href="#path-3"></use>
                </mask>
                <g id="Clip-155"></g>
                <polygon id="Fill-154" fill="#151818" mask="url(#mask-4)" points="-22.8049008 104.499783 994.649084 104.499783 994.649084 -22.7821739 -22.8049008 -22.7821739"></polygon>
            </g>
        </g>
    </g>
</svg>